<svg xmlns="http://www.w3.org/2000/svg" viewBox="0 0 230 57.89"><defs><style>.cls-1{fill:#64B500;}.cls-2{fill:#231f20;fill-rule:evenodd;}</style></defs><title>dcasa_logo</title><g id="Camada_2" data-name="Camada 2"><g id="Layer_1" data-name="Layer 1"><polygon class="cls-1" points="42.61 0 54.95 0 60.36 15.33 50.73 15.33 42.61 0"/><path class="cls-2" d="M19.6,3.71A194.88,194.88,0,0,0,0,4.62v52c7.07.64,12.32.92,19.6.92,18.41,0,26.46-7,26.46-25V28.41C46.06,10.7,37.8,3.71,19.6,3.71ZM29.89,32.54C29.89,43.33,27.65,46,20.16,46H16V15.25h4.19c7.49,0,9.73,2.38,9.73,13.16ZM216.64,4.62H190.52l-7,27.64c-2.14-2.86-5.64-5-10.71-7l-6.65-2.65c-4.35-1.75-5.53-2.66-5.53-4.76,0-2.88,2.31-3.72,6.86-3.72,6.16,0,10.36.42,16,.91V5.24a81.21,81.21,0,0,0-16.94-1.88c-14.08,0-21.91,4.12-21.91,15,0,9.17,5,12.68,12.67,15.9l6.86,2.93c4.55,1.89,5.74,2.8,5.74,5.18,0,3.08-1.89,4.56-6.72,4.56-6.89,0-10-.18-15.09-1.23L137.57,4.62H111.46L101.12,45.49c-3.6.25-6.77.49-10.91.49-6.65,0-9.95-2-9.95-12.94v-4.9c0-10.78,3.3-12.81,9.95-12.81,4.47,0,9.45.27,13.15.56v-11c-2.8-.77-11-1.53-15.18-1.53-16.31,0-24.5,5.8-24.5,24.78V33c0,19,8.19,24.89,24.5,24.85a256.5,256.5,0,0,0,27.06-1.27l2.94-11.54H131l2.8,11.54s19.39,1.32,31.81,1.26c11.2-.05,28.7-1.26,28.7-1.26l2.93-11.54h12.81l2.81,11.54H230ZM119.86,34.37s4.14-17.09,4.55-19.61h.36c.73,3.34,4.48,19.61,4.48,19.61Zm79.07,0s4-16.77,4.54-19.61h.35c.64,3.13,4.48,19.61,4.48,19.61Z"/></g></g></svg>
